<svg width="3085" height="1000" viewBox="0 0 3085 1000" fill="none" xmlns="http://www.w3.org/2000/svg">
<rect width="3085" height="1000" fill="white"/>
<rect x="684" y="278" width="444" height="444" rx="20" fill="#FF4C18"/>
<path d="M856.226 574.081C809.709 547.225 793.771 487.744 820.628 441.227C847.485 394.71 906.966 378.772 953.483 405.628" stroke="white" stroke-width="75"/>
<path d="M856.226 574.081C809.709 547.225 793.771 487.744 820.628 441.227C847.485 394.71 906.966 378.772 953.483 405.628" stroke="#FF4C18" stroke-width="10"/>
<path d="M1002 490C1002 543.572 958.348 587 904.5 587C850.652 587 807 543.572 807 490" stroke="white" stroke-width="75"/>
<path d="M1002 490C1002 543.572 958.348 587 904.5 587C850.652 587 807 543.572 807 490" stroke="#FF4C18" stroke-width="10"/>
<rect x="965" y="490" width="74" height="134" fill="white"/>
<line x1="1001" y1="643" x2="1001" y2="472" stroke="#FF4C18" stroke-width="10"/>
<path d="M1284.7 591.4C1233.1 591.4 1202.2 552.1 1202.2 488.2C1202.2 429.1 1236.7 385 1299.1 385C1341.4 385 1372.6 405.4 1386.4 441.7L1357 462.7C1351 436.9 1331.8 417.1 1299.4 417.1C1257.4 417.1 1238.2 446.5 1238.2 488.2C1238.2 530.8 1257.7 559.6 1297.3 559.6C1331.2 559.6 1346.2 541.3 1353.4 513.4H1295.5V484.9H1387.3V589H1365.7L1356.4 513.4C1354.9 558.7 1329.4 591.4 1284.7 591.4ZM1484.7 592C1442.7 592 1413.9 561.4 1413.9 516.1C1413.9 470.5 1442.7 439.9 1484.7 439.9C1527.3 439.9 1556.1 470.5 1556.1 516.1C1556.1 561.4 1527.3 592 1484.7 592ZM1485 564.1C1506.9 564.1 1521.9 549.7 1521.9 516.1C1521.9 482.2 1506.9 467.8 1485 467.8C1463.4 467.8 1448.4 482.2 1448.4 516.1C1448.4 549.7 1463.4 564.1 1485 564.1ZM1626.91 589H1584.01V388H1667.41C1713.61 388 1749.01 409.3 1749.01 460C1749.01 509.5 1714.21 530.8 1667.41 530.8H1626.91V589ZM1665.91 426.1H1626.91V492.7H1665.91C1688.11 492.7 1704.01 483.7 1704.01 460C1704.01 434.8 1688.11 426.1 1665.91 426.1ZM1809.99 589H1767.09V442H1809.99V488.2C1814.79 463.6 1829.19 439 1857.39 439C1878.99 439 1890.99 452.8 1890.99 475.9C1890.99 491.8 1886.19 504.4 1882.59 510.1H1841.19C1846.59 504.7 1851.69 494.2 1851.69 485.8C1851.69 477.4 1847.79 471.1 1838.49 471.1C1823.79 471.1 1809.99 487 1809.99 511.3V589ZM1940.1 592.3C1917.3 592.3 1901.4 580 1901.4 556.3C1901.4 534.1 1915.5 521.2 1943.4 511.6L1988.4 494.8C1986.9 482.5 1981.2 475.6 1965 475.6C1946.4 475.6 1929.3 486.1 1919.1 500.8L1897.5 469.6C1912.2 453.7 1936.5 439 1968 439C2005.2 439 2026.8 458.8 2026.8 495.7V546.1C2026.8 552.7 2029.2 554.8 2034.6 554.8H2043.3V589H2018.1C2002.2 589 1987.8 581.8 1987.8 560.8V550.9C1983 570.1 1970.1 592.3 1940.1 592.3ZM1941 550C1941 556.9 1945.8 560.8 1956 560.8C1976.4 560.8 1987.8 550.6 1987.8 532.6V522.4L1956.6 535.3C1944.9 540.1 1941 544.3 1941 550ZM2118.25 592C2085.85 592 2070.55 572.8 2070.55 545.5V474.7H2048.65V442H2070.55V424.6L2113.45 402.1V442H2154.25V474.7H2113.45V537.7C2113.45 549.7 2119.45 553.9 2127.85 553.9C2137.15 553.9 2145.25 546.4 2149.75 538.3L2162.05 573.4C2155.75 581.5 2140.75 592 2118.25 592ZM2224.24 589H2181.34V388H2224.24V589ZM2323.29 592C2276.49 592 2247.99 560.8 2247.99 515.5C2247.99 470.2 2276.49 439 2319.69 439C2366.49 439 2389.89 470.2 2389.89 508.6C2389.89 514.9 2389.29 523.3 2388.39 526.6H2288.19C2290.89 547.3 2304.69 557.2 2323.89 557.2C2344.59 557.2 2355.69 548.2 2361.09 535.6L2387.19 561.7C2376.09 577.6 2356.29 592 2323.29 592ZM2319.99 472C2301.69 472 2290.29 482.2 2288.19 502H2351.19C2349.69 482.5 2339.19 472 2319.99 472Z" fill="#2E2E2E"/>
</svg>
